STARTFONT 2.1
COMMENT
COMMENT Converted from OpenType font "pixelade.ttf" by "otf2bdf 3.0".
COMMENT
FONT -FreeType-Pixelade-Medium-R-Normal--25-180-100-100-P-89-ISO10646-1
SIZE 18 100 100
FONTBOUNDINGBOX 129 26 0 -6
STARTPROPERTIES 19
FOUNDRY "FreeType"
FAMILY_NAME "Pixelade"
WEIGHT_NAME "Medium"
SLANT "R"
SETWIDTH_NAME "Normal"
ADD_STYLE_NAME ""
PIXEL_SIZE 25
POINT_SIZE 180
RESOLUTION_X 100
RESOLUTION_Y 100
SPACING "P"
AVERAGE_WIDTH 89
CHARSET_REGISTRY "ISO10646"
CHARSET_ENCODING "1"
FONT_ASCENT 19
FONT_DESCENT 5
COPYRIGHT "© 2001  josep Patau i Bellart & astramatantaviana typeface division  patau@antaviana.com, this typeface is Publishware, submit your works please, more info in www.astramat.com/typeface"
_OTF_FONTFILE "pixelade.ttf"
_OTF_PSNAME "Pixelade"
ENDPROPERTIES
CHARS 158
STARTCHAR 0020
ENCODING 32
SWIDTH 240 0
DWIDTH 6 0
BBX 0 0 0 0
BITMAP
ENDCHAR
STARTCHAR 0021
ENCODING 33
SWIDTH 160 0
DWIDTH 4 0
BBX 2 18 0 -4
BITMAP
C0
C0
C0
C0
C0
C0
C0
C0
C0
C0
C0
C0
C0
C0
00
00
C0
C0
ENDCHAR
STARTCHAR 0022
ENCODING 34
SWIDTH 320 0
DWIDTH 8 0
BBX 6 6 0 14
BITMAP
CC
CC
CC
CC
CC
CC
ENDCHAR
STARTCHAR 0023
ENCODING 35
SWIDTH 600 0
DWIDTH 15 0
BBX 14 14 0 0
BITMAP
0CC0
0CC0
0CC0
0CC0
FFFC
FFFC
0CC0
0CC0
FFFC
FFFC
0CC0
0CC0
0CC0
0CC0
ENDCHAR
STARTCHAR 0024
ENCODING 36
SWIDTH 520 0
DWIDTH 13 0
BBX 10 18 1 -2
BITMAP
0C00
0C00
3FC0
3FC0
CC00
CC00
CC00
CC00
3F00
3F00
0CC0
0CC0
0CC0
0CC0
FF00
FF00
0C00
0C00
ENDCHAR
STARTCHAR 0025
ENCODING 37
SWIDTH 640 0
DWIDTH 16 0
BBX 14 14 0 0
BITMAP
300C
300C
CC30
CC30
30C0
30C0
0300
0300
0C30
0C30
30CC
30CC
C030
C030
ENDCHAR
STARTCHAR 0026
ENCODING 38
SWIDTH 640 0
DWIDTH 16 0
BBX 14 14 0 0
BITMAP
00C0
00C0
0330
0330
00C0
00C0
F330
F330
0C0C
0C0C
0C0C
0C0C
33F0
33F0
ENDCHAR
STARTCHAR 0027
ENCODING 39
SWIDTH 200 0
DWIDTH 5 0
BBX 2 6 1 8
BITMAP
C0
C0
C0
C0
C0
C0
ENDCHAR
STARTCHAR 0028
ENCODING 40
SWIDTH 320 0
DWIDTH 8 0
BBX 6 26 0 -6
BITMAP
0C
0C
30
30
C0
C0
C0
C0
C0
C0
C0
C0
C0
C0
C0
C0
C0
C0
C0
C0
C0
C0
30
30
0C
0C
ENDCHAR
STARTCHAR 0029
ENCODING 41
SWIDTH 320 0
DWIDTH 8 0
BBX 6 26 0 -6
BITMAP
C0
C0
30
30
0C
0C
0C
0C
0C
0C
0C
0C
0C
0C
0C
0C
0C
0C
0C
0C
0C
0C
30
30
C0
C0
ENDCHAR
STARTCHAR 002A
ENCODING 42
SWIDTH 480 0
DWIDTH 12 0
BBX 10 10 0 10
BITMAP
0C00
0C00
CCC0
CCC0
3F00
3F00
CCC0
CCC0
0C00
0C00
ENDCHAR
STARTCHAR 002B
ENCODING 43
SWIDTH 480 0
DWIDTH 12 0
BBX 10 10 0 0
BITMAP
0C00
0C00
0C00
0C00
FFC0
FFC0
0C00
0C00
0C00
0C00
ENDCHAR
STARTCHAR 002C
ENCODING 44
SWIDTH 240 0
DWIDTH 6 0
BBX 4 6 0 -2
BITMAP
30
30
30
30
C0
C0
ENDCHAR
STARTCHAR 002D
ENCODING 45
SWIDTH 400 0
DWIDTH 10 0
BBX 8 2 0 6
BITMAP
FF
FF
ENDCHAR
STARTCHAR 002E
ENCODING 46
SWIDTH 160 0
DWIDTH 4 0
BBX 2 2 0 0
BITMAP
C0
C0
ENDCHAR
STARTCHAR 002F
ENCODING 47
SWIDTH 640 0
DWIDTH 16 0
BBX 14 14 0 0
BITMAP
000C
000C
0030
0030
00C0
00C0
0300
0300
0C00
0C00
3000
3000
C000
C000
ENDCHAR
STARTCHAR 0030
ENCODING 48
SWIDTH 440 0
DWIDTH 11 0
BBX 8 14 1 0
BITMAP
3C
3C
C3
C3
C3
C3
C3
C3
C3
C3
C3
C3
3C
3C
ENDCHAR
STARTCHAR 0031
ENCODING 49
SWIDTH 280 0
DWIDTH 7 0
BBX 4 14 1 0
BITMAP
30
30
F0
F0
30
30
30
30
30
30
30
30
30
30
ENDCHAR
STARTCHAR 0032
ENCODING 50
SWIDTH 440 0
DWIDTH 11 0
BBX 8 14 1 0
BITMAP
FC
FC
03
03
03
03
3C
3C
C0
C0
C0
C0
FF
FF
ENDCHAR
STARTCHAR 0033
ENCODING 51
SWIDTH 440 0
DWIDTH 11 0
BBX 8 14 1 0
BITMAP
FC
FC
03
03
03
03
3C
3C
03
03
03
03
FC
FC
ENDCHAR
STARTCHAR 0034
ENCODING 52
SWIDTH 440 0
DWIDTH 11 0
BBX 8 14 1 0
BITMAP
C3
C3
C3
C3
C3
C3
3F
3F
03
03
03
03
03
03
ENDCHAR
STARTCHAR 0035
ENCODING 53
SWIDTH 440 0
DWIDTH 11 0
BBX 8 14 1 0
BITMAP
FF
FF
C0
C0
C0
C0
FC
FC
03
03
03
03
FC
FC
ENDCHAR
STARTCHAR 0036
ENCODING 54
SWIDTH 440 0
DWIDTH 11 0
BBX 8 14 1 0
BITMAP
3C
3C
C0
C0
C0
C0
FC
FC
C3
C3
C3
C3
3C
3C
ENDCHAR
STARTCHAR 0037
ENCODING 55
SWIDTH 440 0
DWIDTH 11 0
BBX 8 14 1 0
BITMAP
FF
FF
03
03
03
03
0C
0C
0C
0C
0C
0C
0C
0C
ENDCHAR
STARTCHAR 0038
ENCODING 56
SWIDTH 440 0
DWIDTH 11 0
BBX 8 14 1 0
BITMAP
3C
3C
C3
C3
C3
C3
3C
3C
C3
C3
C3
C3
3C
3C
ENDCHAR
STARTCHAR 0039
ENCODING 57
SWIDTH 440 0
DWIDTH 11 0
BBX 8 14 1 0
BITMAP
3C
3C
C3
C3
C3
C3
3F
3F
03
03
03
03
3C
3C
ENDCHAR
STARTCHAR 003A
ENCODING 58
SWIDTH 200 0
DWIDTH 5 0
BBX 2 8 1 0
BITMAP
C0
C0
00
00
00
00
C0
C0
ENDCHAR
STARTCHAR 003B
ENCODING 59
SWIDTH 240 0
DWIDTH 6 0
BBX 4 10 0 -2
BITMAP
30
30
00
00
30
30
30
30
C0
C0
ENDCHAR
STARTCHAR 003C
ENCODING 60
SWIDTH 440 0
DWIDTH 11 0
BBX 8 14 1 0
BITMAP
03
03
0C
0C
30
30
C0
C0
30
30
0C
0C
03
03
ENDCHAR
STARTCHAR 003D
ENCODING 61
SWIDTH 480 0
DWIDTH 12 0
BBX 10 6 0 4
BITMAP
FFC0
FFC0
0000
0000
FFC0
FFC0
ENDCHAR
STARTCHAR 003E
ENCODING 62
SWIDTH 440 0
DWIDTH 11 0
BBX 8 14 1 0
BITMAP
C0
C0
30
30
0C
0C
03
03
0C
0C
30
30
C0
C0
ENDCHAR
STARTCHAR 003F
ENCODING 63
SWIDTH 440 0
DWIDTH 11 0
BBX 8 14 1 0
BITMAP
3C
3C
C3
C3
03
03
0C
0C
30
30
00
00
30
30
ENDCHAR
STARTCHAR 0040
ENCODING 64
SWIDTH 640 0
DWIDTH 16 0
BBX 14 14 0 -4
BITMAP
0FF0
0FF0
300C
300C
C3CC
C3CC
CCCC
CCCC
C3F0
C3F0
3000
3000
0FFC
0FFC
ENDCHAR
STARTCHAR 0041
ENCODING 65
SWIDTH 440 0
DWIDTH 11 0
BBX 8 14 1 0
BITMAP
3C
3C
C3
C3
C3
C3
FF
FF
C3
C3
C3
C3
C3
C3
ENDCHAR
STARTCHAR 0042
ENCODING 66
SWIDTH 440 0
DWIDTH 11 0
BBX 8 14 1 0
BITMAP
FC
FC
C3
C3
C3
C3
FC
FC
C3
C3
C3
C3
FC
FC
ENDCHAR
STARTCHAR 0043
ENCODING 67
SWIDTH 440 0
DWIDTH 11 0
BBX 8 14 1 0
BITMAP
3F
3F
C0
C0
C0
C0
C0
C0
C0
C0
C0
C0
3F
3F
ENDCHAR
STARTCHAR 0044
ENCODING 68
SWIDTH 440 0
DWIDTH 11 0
BBX 8 14 1 0
BITMAP
FC
FC
C3
C3
C3
C3
C3
C3
C3
C3
C3
C3
FC
FC
ENDCHAR
STARTCHAR 0045
ENCODING 69
SWIDTH 360 0
DWIDTH 9 0
BBX 8 14 0 0
BITMAP
FF
FF
C0
C0
C0
C0
FC
FC
C0
C0
C0
C0
FF
FF
ENDCHAR
STARTCHAR 0046
ENCODING 70
SWIDTH 360 0
DWIDTH 9 0
BBX 8 14 0 0
BITMAP
FF
FF
C0
C0
C0
C0
FF
FF
C0
C0
C0
C0
C0
C0
ENDCHAR
STARTCHAR 0047
ENCODING 71
SWIDTH 440 0
DWIDTH 11 0
BBX 8 14 1 0
BITMAP
3F
3F
C0
C0
C0
C0
CF
CF
C3
C3
C3
C3
3C
3C
ENDCHAR
STARTCHAR 0048
ENCODING 72
SWIDTH 440 0
DWIDTH 11 0
BBX 8 14 1 0
BITMAP
C3
C3
C3
C3
C3
C3
FF
FF
C3
C3
C3
C3
C3
C3
ENDCHAR
STARTCHAR 0049
ENCODING 73
SWIDTH 320 0
DWIDTH 8 0
BBX 6 14 0 0
BITMAP
FC
FC
30
30
30
30
30
30
30
30
30
30
FC
FC
ENDCHAR
STARTCHAR 004A
ENCODING 74
SWIDTH 440 0
DWIDTH 11 0
BBX 8 14 1 0
BITMAP
03
03
03
03
03
03
03
03
C3
C3
C3
C3
3C
3C
ENDCHAR
STARTCHAR 004B
ENCODING 75
SWIDTH 440 0
DWIDTH 11 0
BBX 8 14 1 0
BITMAP
C3
C3
C3
C3
CC
CC
F0
F0
CC
CC
C3
C3
C3
C3
ENDCHAR
STARTCHAR 004C
ENCODING 76
SWIDTH 400 0
DWIDTH 10 0
BBX 8 14 1 0
BITMAP
C0
C0
C0
C0
C0
C0
C0
C0
C0
C0
C0
C0
FF
FF
ENDCHAR
STARTCHAR 004D
ENCODING 77
SWIDTH 560 0
DWIDTH 14 0
BBX 12 14 0 0
BITMAP
C030
C030
F0F0
F0F0
CF30
CF30
C030
C030
C030
C030
C030
C030
C030
C030
ENDCHAR
STARTCHAR 004E
ENCODING 78
SWIDTH 480 0
DWIDTH 12 0
BBX 10 14 0 0
BITMAP
F0C0
F0C0
F0C0
F0C0
CCC0
CCC0
CCC0
CCC0
CCC0
CCC0
C3C0
C3C0
C3C0
C3C0
ENDCHAR
STARTCHAR 004F
ENCODING 79
SWIDTH 480 0
DWIDTH 12 0
BBX 10 14 0 0
BITMAP
3F00
3F00
C0C0
C0C0
C0C0
C0C0
C0C0
C0C0
C0C0
C0C0
C0C0
C0C0
3F00
3F00
ENDCHAR
STARTCHAR 0050
ENCODING 80
SWIDTH 440 0
DWIDTH 11 0
BBX 8 14 1 0
BITMAP
FC
FC
C3
C3
C3
C3
FC
FC
C0
C0
C0
C0
C0
C0
ENDCHAR
STARTCHAR 0051
ENCODING 81
SWIDTH 440 0
DWIDTH 11 0
BBX 8 16 1 -2
BITMAP
3C
3C
C3
C3
C3
C3
C3
C3
C3
C3
C3
C3
3C
3C
0C
0C
ENDCHAR
STARTCHAR 0052
ENCODING 82
SWIDTH 440 0
DWIDTH 11 0
BBX 8 14 1 0
BITMAP
FC
FC
C3
C3
C3
C3
FC
FC
C3
C3
C3
C3
C3
C3
ENDCHAR
STARTCHAR 0053
ENCODING 83
SWIDTH 440 0
DWIDTH 11 0
BBX 8 14 1 0
BITMAP
3F
3F
C0
C0
C0
C0
3C
3C
03
03
03
03
FC
FC
ENDCHAR
STARTCHAR 0054
ENCODING 84
SWIDTH 520 0
DWIDTH 13 0
BBX 10 14 1 0
BITMAP
FFC0
FFC0
0C00
0C00
0C00
0C00
0C00
0C00
0C00
0C00
0C00
0C00
0C00
0C00
ENDCHAR
STARTCHAR 0055
ENCODING 85
SWIDTH 440 0
DWIDTH 11 0
BBX 8 14 1 0
BITMAP
C3
C3
C3
C3
C3
C3
C3
C3
C3
C3
C3
C3
3C
3C
ENDCHAR
STARTCHAR 0056
ENCODING 86
SWIDTH 480 0
DWIDTH 12 0
BBX 10 14 0 0
BITMAP
C0C0
C0C0
C0C0
C0C0
C0C0
C0C0
3300
3300
3300
3300
3300
3300
0C00
0C00
ENDCHAR
STARTCHAR 0057
ENCODING 87
SWIDTH 640 0
DWIDTH 16 0
BBX 14 14 0 0
BITMAP
C00C
C00C
C00C
C00C
C30C
C30C
3330
3330
3330
3330
3330
3330
3CF0
3CF0
ENDCHAR
STARTCHAR 0058
ENCODING 88
SWIDTH 480 0
DWIDTH 12 0
BBX 10 14 0 0
BITMAP
C0C0
C0C0
3300
3300
3300
3300
0C00
0C00
3300
3300
3300
3300
C0C0
C0C0
ENDCHAR
STARTCHAR 0059
ENCODING 89
SWIDTH 480 0
DWIDTH 12 0
BBX 10 14 0 0
BITMAP
C0C0
C0C0
C0C0
C0C0
3300
3300
3300
3300
0C00
0C00
0C00
0C00
0C00
0C00
ENDCHAR
STARTCHAR 005A
ENCODING 90
SWIDTH 480 0
DWIDTH 12 0
BBX 10 14 0 0
BITMAP
FFC0
FFC0
00C0
00C0
0300
0300
0C00
0C00
3000
3000
C000
C000
FFC0
FFC0
ENDCHAR
STARTCHAR 005B
ENCODING 91
SWIDTH 320 0
DWIDTH 8 0
BBX 6 26 0 -6
BITMAP
FC
FC
C0
C0
C0
C0
C0
C0
C0
C0
C0
C0
C0
C0
C0
C0
C0
C0
C0
C0
C0
C0
C0
C0
FC
FC
ENDCHAR
STARTCHAR 005C
ENCODING 92
SWIDTH 640 0
DWIDTH 16 0
BBX 14 14 0 0
BITMAP
C000
C000
3000
3000
0C00
0C00
0300
0300
00C0
00C0
0030
0030
000C
000C
ENDCHAR
STARTCHAR 005D
ENCODING 93
SWIDTH 320 0
DWIDTH 8 0
BBX 6 26 0 -6
BITMAP
FC
FC
0C
0C
0C
0C
0C
0C
0C
0C
0C
0C
0C
0C
0C
0C
0C
0C
0C
0C
0C
0C
0C
0C
FC
FC
ENDCHAR
STARTCHAR 005E
ENCODING 94
SWIDTH 320 0
DWIDTH 8 0
BBX 0 0 0 0
BITMAP
ENDCHAR
STARTCHAR 005F
ENCODING 95
SWIDTH 440 0
DWIDTH 11 0
BBX 8 2 1 0
BITMAP
FF
FF
ENDCHAR
STARTCHAR 0060
ENCODING 96
SWIDTH 240 0
DWIDTH 6 0
BBX 4 4 0 10
BITMAP
C0
C0
70
70
ENDCHAR
STARTCHAR 0061
ENCODING 97
SWIDTH 400 0
DWIDTH 10 0
BBX 8 10 0 0
BITMAP
3C
3C
03
03
3F
3F
C3
C3
3F
3F
ENDCHAR
STARTCHAR 0062
ENCODING 98
SWIDTH 400 0
DWIDTH 10 0
BBX 8 14 0 0
BITMAP
C0
C0
C0
C0
FC
FC
C3
C3
C3
C3
C3
C3
FC
FC
ENDCHAR
STARTCHAR 0063
ENCODING 99
SWIDTH 400 0
DWIDTH 10 0
BBX 8 10 0 0
BITMAP
3F
3F
C0
C0
C0
C0
C0
C0
3F
3F
ENDCHAR
STARTCHAR 0064
ENCODING 100
SWIDTH 440 0
DWIDTH 11 0
BBX 8 14 1 0
BITMAP
03
03
03
03
3F
3F
C3
C3
C3
C3
C3
C3
3F
3F
ENDCHAR
STARTCHAR 0065
ENCODING 101
SWIDTH 400 0
DWIDTH 10 0
BBX 8 10 0 0
BITMAP
3C
3C
C3
C3
FC
FC
C0
C0
3C
3C
ENDCHAR
STARTCHAR 0066
ENCODING 102
SWIDTH 440 0
DWIDTH 11 0
BBX 8 14 1 0
BITMAP
0F
0F
30
30
FC
FC
30
30
30
30
30
30
30
30
ENDCHAR
STARTCHAR 0067
ENCODING 103
SWIDTH 440 0
DWIDTH 11 0
BBX 8 14 1 -4
BITMAP
3C
3C
C3
C3
C3
C3
C3
C3
3F
3F
03
03
3C
3C
ENDCHAR
STARTCHAR 0068
ENCODING 104
SWIDTH 440 0
DWIDTH 11 0
BBX 8 14 1 0
BITMAP
C0
C0
C0
C0
FC
FC
C3
C3
C3
C3
C3
C3
C3
C3
ENDCHAR
STARTCHAR 0069
ENCODING 105
SWIDTH 200 0
DWIDTH 5 0
BBX 2 14 1 0
BITMAP
C0
C0
00
00
C0
C0
C0
C0
C0
C0
C0
C0
C0
C0
ENDCHAR
STARTCHAR 006A
ENCODING 106
SWIDTH 240 0
DWIDTH 6 0
BBX 4 18 0 -4
BITMAP
30
30
00
00
30
30
30
30
30
30
30
30
30
30
30
30
C0
C0
ENDCHAR
STARTCHAR 006B
ENCODING 107
SWIDTH 440 0
DWIDTH 11 0
BBX 8 14 1 0
BITMAP
C0
C0
C3
C3
CC
CC
F0
F0
CC
CC
C3
C3
C3
C3
ENDCHAR
STARTCHAR 006C
ENCODING 108
SWIDTH 200 0
DWIDTH 5 0
BBX 2 14 1 0
BITMAP
C0
C0
C0
C0
C0
C0
C0
C0
C0
C0
C0
C0
C0
C0
ENDCHAR
STARTCHAR 006D
ENCODING 109
SWIDTH 600 0
DWIDTH 15 0
BBX 13 10 0 0
BITMAP
FFF0
FFF0
C308
C308
C308
C308
C308
C308
C308
C308
ENDCHAR
STARTCHAR 006E
ENCODING 110
SWIDTH 440 0
DWIDTH 11 0
BBX 8 10 1 0
BITMAP
FC
FC
C3
C3
C3
C3
C3
C3
C3
C3
ENDCHAR
STARTCHAR 006F
ENCODING 111
SWIDTH 400 0
DWIDTH 10 0
BBX 8 10 0 0
BITMAP
3C
3C
C3
C3
C3
C3
C3
C3
3C
3C
ENDCHAR
STARTCHAR 0070
ENCODING 112
SWIDTH 400 0
DWIDTH 10 0
BBX 8 14 0 -4
BITMAP
FC
FC
C3
C3
C3
C3
C3
C3
FC
FC
C0
C0
C0
C0
ENDCHAR
STARTCHAR 0071
ENCODING 113
SWIDTH 440 0
DWIDTH 11 0
BBX 8 14 1 -4
BITMAP
3F
3F
C3
C3
C3
C3
C3
C3
3F
3F
03
03
03
03
ENDCHAR
STARTCHAR 0072
ENCODING 114
SWIDTH 400 0
DWIDTH 10 0
BBX 8 10 0 0
BITMAP
CF
CF
F0
F0
C0
C0
C0
C0
C0
C0
ENDCHAR
STARTCHAR 0073
ENCODING 115
SWIDTH 400 0
DWIDTH 10 0
BBX 8 10 0 0
BITMAP
3F
3F
C0
C0
3C
3C
03
03
FC
FC
ENDCHAR
STARTCHAR 0074
ENCODING 116
SWIDTH 240 0
DWIDTH 6 0
BBX 4 14 0 0
BITMAP
C0
C0
C0
C0
F0
F0
C0
C0
C0
C0
C0
C0
30
30
ENDCHAR
STARTCHAR 0075
ENCODING 117
SWIDTH 400 0
DWIDTH 10 0
BBX 8 10 0 0
BITMAP
C3
C3
C3
C3
C3
C3
C3
C3
3F
3F
ENDCHAR
STARTCHAR 0076
ENCODING 118
SWIDTH 400 0
DWIDTH 10 0
BBX 8 10 0 0
BITMAP
C3
C3
C3
C3
C3
C3
33
33
0C
0C
ENDCHAR
STARTCHAR 0077
ENCODING 119
SWIDTH 640 0
DWIDTH 16 0
BBX 14 10 0 0
BITMAP
C00C
C00C
C30C
C30C
C30C
C30C
C30C
C30C
3CF0
3CF0
ENDCHAR
STARTCHAR 0078
ENCODING 120
SWIDTH 480 0
DWIDTH 12 0
BBX 10 10 0 0
BITMAP
C0C0
C0C0
3300
3300
0C00
0C00
3300
3300
C0C0
C0C0
ENDCHAR
STARTCHAR 0079
ENCODING 121
SWIDTH 440 0
DWIDTH 11 0
BBX 8 14 1 -4
BITMAP
C3
C3
C3
C3
C3
C3
C3
C3
3F
3F
03
03
3C
3C
ENDCHAR
STARTCHAR 007A
ENCODING 122
SWIDTH 400 0
DWIDTH 10 0
BBX 8 10 0 0
BITMAP
FF
FF
03
03
3C
3C
C0
C0
FF
FF
ENDCHAR
STARTCHAR 007B
ENCODING 123
SWIDTH 320 0
DWIDTH 8 0
BBX 6 14 0 0
BITMAP
3C
3C
30
30
30
30
C0
C0
30
30
30
30
3C
3C
ENDCHAR
STARTCHAR 007C
ENCODING 124
SWIDTH 200 0
DWIDTH 5 0
BBX 2 14 1 0
BITMAP
C0
C0
C0
C0
C0
C0
C0
C0
C0
C0
C0
C0
C0
C0
ENDCHAR
STARTCHAR 007D
ENCODING 125
SWIDTH 320 0
DWIDTH 8 0
BBX 6 14 0 0
BITMAP
F0
F0
30
30
30
30
0C
0C
30
30
30
30
F0
F0
ENDCHAR
STARTCHAR 007E
ENCODING 126
SWIDTH 400 0
DWIDTH 10 0
BBX 0 0 0 0
BITMAP
ENDCHAR
STARTCHAR 00A0
ENCODING 160
SWIDTH 400 0
DWIDTH 10 0
BBX 0 0 0 0
BITMAP
ENDCHAR
STARTCHAR 00A1
ENCODING 161
SWIDTH 160 0
DWIDTH 4 0
BBX 2 18 0 0
BITMAP
C0
C0
00
00
C0
C0
C0
C0
C0
C0
C0
C0
C0
C0
C0
C0
C0
C0
ENDCHAR
STARTCHAR 00A8
ENCODING 168
SWIDTH 320 0
DWIDTH 8 0
BBX 6 2 0 12
BITMAP
DC
DC
ENDCHAR
STARTCHAR 00A9
ENCODING 169
SWIDTH 680 0
DWIDTH 17 0
BBX 15 14 0 0
BITMAP
0FF0
0FF0
300C
300C
C3C2
C3C2
CC02
CC02
C3C2
C3C2
300C
300C
0FF0
0FF0
ENDCHAR
STARTCHAR 00AA
ENCODING 170
SWIDTH 320 0
DWIDTH 8 0
BBX 6 9 0 4
BITMAP
3C
CC
CC
3C
3C
00
00
FC
FC
ENDCHAR
STARTCHAR 00AB
ENCODING 171
SWIDTH 760 0
DWIDTH 19 0
BBX 16 14 1 0
BITMAP
0303
0303
0C0C
0C0C
3030
3030
C0C0
C0C0
3030
3030
0C0C
0C0C
0303
0303
ENDCHAR
STARTCHAR 00AE
ENCODING 174
SWIDTH 720 0
DWIDTH 18 0
BBX 15 14 1 0
BITMAP
0FF0
0FF0
300C
300C
C3C2
C3C2
C3C2
C3C2
C332
C332
300C
300C
0FF0
0FF0
ENDCHAR
STARTCHAR 00B4
ENCODING 180
SWIDTH 240 0
DWIDTH 6 0
BBX 4 4 0 10
BITMAP
30
30
C0
C0
ENDCHAR
STARTCHAR 00B7
ENCODING 183
SWIDTH 320 0
DWIDTH 8 0
BBX 6 6 0 4
BITMAP
30
30
FC
FC
30
30
ENDCHAR
STARTCHAR 00BA
ENCODING 186
SWIDTH 320 0
DWIDTH 8 0
BBX 6 9 0 4
BITMAP
30
CC
CC
30
30
00
00
FC
FC
ENDCHAR
STARTCHAR 00BB
ENCODING 187
SWIDTH 760 0
DWIDTH 19 0
BBX 16 14 1 0
BITMAP
C0C0
C0C0
3030
3030
0C0C
0C0C
0303
0303
0C0C
0C0C
3030
3030
C0C0
C0C0
ENDCHAR
STARTCHAR 00BF
ENCODING 191
SWIDTH 440 0
DWIDTH 11 0
BBX 8 14 1 0
BITMAP
0C
0C
00
00
0C
0C
30
30
C0
C0
C3
C3
3C
3C
ENDCHAR
STARTCHAR 00C0
ENCODING 192
SWIDTH 440 0
DWIDTH 11 0
BBX 8 20 1 0
BITMAP
30
30
0C
0C
00
00
3C
3C
C3
C3
C3
C3
FF
FF
C3
C3
C3
C3
C3
C3
ENDCHAR
STARTCHAR 00C1
ENCODING 193
SWIDTH 400 0
DWIDTH 10 0
BBX 8 20 0 0
BITMAP
03
03
0C
0C
00
00
3C
3C
C3
C3
C3
C3
FF
FF
C3
C3
C3
C3
C3
C3
ENDCHAR
STARTCHAR 00C4
ENCODING 196
SWIDTH 400 0
DWIDTH 10 0
BBX 8 18 0 0
BITMAP
33
33
00
00
3C
3C
C3
C3
C3
C3
FF
FF
C3
C3
C3
C3
C3
C3
ENDCHAR
STARTCHAR 00C5
ENCODING 197
SWIDTH 5280 0
DWIDTH 132 0
BBX 129 20 0 -5
BITMAP
00007C0000000000000000000000000000
1981FF0000000000000000000000000000
1983FF8000000000C00000000000000C00
318783C000000000C00000000000000C00
730F01E000000000C00000000000000C00
630E38E000FC07C3F9B9F80CE1C0F83F80
E70CFE6001FE0FE3F9FBFC0DF7E1FC3F80
CE18FE3001FF1FE3F9C3FE0FFFF1FE0C00
CC19C73003831800C1C7060E1C33860C00
CC19833000031800C180060C1830060C00
CC19833000070E00C1800E0C18300E0C00
CC19833000FF07C0C181FE0C1830FE0C00
CE398730018301E0C183060C1831860C00
67F3866003030030C186060C1833060C00
63E30C6003031830C186060C1833060C00
71C70CE003871C70C1870E0C18338E0C00
3C1E18C001FFCFE0F983FF8C1831FF0F80
1FFC198000F987C07801F3000000F30780
0FF8198000000000000000000000000000
03E0000000000000000000000000000000
ENDCHAR
STARTCHAR 00C7
ENCODING 199
SWIDTH 400 0
DWIDTH 10 0
BBX 8 20 0 -6
BITMAP
3F
3F
C0
C0
C0
C0
C0
C0
C0
C0
C0
C0
3F
3F
0C
0C
30
30
0C
0C
ENDCHAR
STARTCHAR 00C8
ENCODING 200
SWIDTH 360 0
DWIDTH 9 0
BBX 8 20 0 0
BITMAP
30
30
0C
0C
00
00
FF
FF
C0
C0
C0
C0
FC
FC
C0
C0
C0
C0
FF
FF
ENDCHAR
STARTCHAR 00C9
ENCODING 201
SWIDTH 400 0
DWIDTH 10 0
BBX 8 20 0 0
BITMAP
03
03
0C
0C
00
00
FF
FF
C0
C0
C0
C0
FC
FC
C0
C0
C0
C0
FF
FF
ENDCHAR
STARTCHAR 00CB
ENCODING 203
SWIDTH 400 0
DWIDTH 10 0
BBX 8 18 0 0
BITMAP
33
33
00
00
FF
FF
C0
C0
C0
C0
FC
FC
C0
C0
C0
C0
FF
FF
ENDCHAR
STARTCHAR 00CC
ENCODING 204
SWIDTH 320 0
DWIDTH 8 0
BBX 6 20 0 0
BITMAP
C0
C0
30
30
00
00
FC
FC
30
30
30
30
30
30
30
30
30
30
FC
FC
ENDCHAR
STARTCHAR 00CD
ENCODING 205
SWIDTH 320 0
DWIDTH 8 0
BBX 6 20 0 0
BITMAP
0C
0C
30
30
00
00
FC
FC
30
30
30
30
30
30
30
30
30
30
FC
FC
ENDCHAR
STARTCHAR 00CF
ENCODING 207
SWIDTH 320 0
DWIDTH 8 0
BBX 6 18 0 0
BITMAP
CC
CC
00
00
FC
FC
30
30
30
30
30
30
30
30
30
30
FC
FC
ENDCHAR
STARTCHAR 00D1
ENCODING 209
SWIDTH 520 0
DWIDTH 13 0
BBX 10 18 1 0
BITMAP
FF00
FF00
0000
0000
F0C0
F0C0
F0C0
F0C0
CCC0
CCC0
CCC0
CCC0
CCC0
CCC0
C3C0
C3C0
C3C0
C3C0
ENDCHAR
STARTCHAR 00D2
ENCODING 210
SWIDTH 480 0
DWIDTH 12 0
BBX 10 20 0 0
BITMAP
3000
3000
0C00
0C00
0000
0000
3F00
3F00
C0C0
C0C0
C0C0
C0C0
C0C0
C0C0
C0C0
C0C0
C0C0
C0C0
3F00
3F00
ENDCHAR
STARTCHAR 00D3
ENCODING 211
SWIDTH 480 0
DWIDTH 12 0
BBX 10 20 0 0
BITMAP
0300
0300
0C00
0C00
0000
0000
3F00
3F00
C0C0
C0C0
C0C0
C0C0
C0C0
C0C0
C0C0
C0C0
C0C0
C0C0
3F00
3F00
ENDCHAR
STARTCHAR 00D6
ENCODING 214
SWIDTH 480 0
DWIDTH 12 0
BBX 10 18 0 0
BITMAP
3300
3300
0000
0000
3F00
3F00
C0C0
C0C0
C0C0
C0C0
C0C0
C0C0
C0C0
C0C0
C0C0
C0C0
3F00
3F00
ENDCHAR
STARTCHAR 00D9
ENCODING 217
SWIDTH 400 0
DWIDTH 10 0
BBX 8 20 0 0
BITMAP
30
30
0C
0C
00
00
C3
C3
C3
C3
C3
C3
C3
C3
C3
C3
C3
C3
3C
3C
ENDCHAR
STARTCHAR 00DA
ENCODING 218
SWIDTH 440 0
DWIDTH 11 0
BBX 8 20 1 0
BITMAP
03
03
0C
0C
00
00
C3
C3
C3
C3
C3
C3
C3
C3
C3
C3
C3
C3
3C
3C
ENDCHAR
STARTCHAR 00DC
ENCODING 220
SWIDTH 440 0
DWIDTH 11 0
BBX 8 18 1 0
BITMAP
33
33
00
00
C3
C3
C3
C3
C3
C3
C3
C3
C3
C3
C3
C3
3C
3C
ENDCHAR
STARTCHAR 00E0
ENCODING 224
SWIDTH 400 0
DWIDTH 10 0
BBX 8 16 0 0
BITMAP
30
30
0C
0C
00
00
3C
3C
03
03
3F
3F
C3
C3
3F
3F
ENDCHAR
STARTCHAR 00E1
ENCODING 225
SWIDTH 400 0
DWIDTH 10 0
BBX 8 16 0 0
BITMAP
03
03
0C
0C
00
00
3C
3C
03
03
3F
3F
C3
C3
3F
3F
ENDCHAR
STARTCHAR 00E2
ENCODING 226
SWIDTH 400 0
DWIDTH 10 0
BBX 0 0 0 0
BITMAP
ENDCHAR
STARTCHAR 00E3
ENCODING 227
SWIDTH 400 0
DWIDTH 10 0
BBX 0 0 0 0
BITMAP
ENDCHAR
STARTCHAR 00E4
ENCODING 228
SWIDTH 440 0
DWIDTH 11 0
BBX 8 14 1 0
BITMAP
33
33
00
00
3C
3C
03
03
3F
3F
C3
C3
3F
3F
ENDCHAR
STARTCHAR 00E5
ENCODING 229
SWIDTH 400 0
DWIDTH 10 0
BBX 0 0 0 0
BITMAP
ENDCHAR
STARTCHAR 00E7
ENCODING 231
SWIDTH 440 0
DWIDTH 11 0
BBX 8 14 1 -4
BITMAP
3F
3F
C0
C0
C0
C0
C0
C0
3F
3F
0C
0C
30
30
ENDCHAR
STARTCHAR 00E8
ENCODING 232
SWIDTH 440 0
DWIDTH 11 0
BBX 8 16 1 0
BITMAP
30
30
0C
0C
00
00
3C
3C
C3
C3
FC
FC
C0
C0
3C
3C
ENDCHAR
STARTCHAR 00E9
ENCODING 233
SWIDTH 440 0
DWIDTH 11 0
BBX 8 16 1 0
BITMAP
03
03
0C
0C
00
00
3C
3C
C3
C3
FC
FC
C0
C0
3C
3C
ENDCHAR
STARTCHAR 00EB
ENCODING 235
SWIDTH 440 0
DWIDTH 11 0
BBX 8 14 1 0
BITMAP
CC
CC
00
00
3C
3C
C3
C3
FC
FC
C0
C0
3C
3C
ENDCHAR
STARTCHAR 00EC
ENCODING 236
SWIDTH 240 0
DWIDTH 6 0
BBX 4 16 0 0
BITMAP
C0
C0
30
30
00
00
30
30
30
30
30
30
30
30
30
30
ENDCHAR
STARTCHAR 00ED
ENCODING 237
SWIDTH 280 0
DWIDTH 7 0
BBX 4 16 1 0
BITMAP
30
30
C0
C0
00
00
C0
C0
C0
C0
C0
C0
C0
C0
C0
C0
ENDCHAR
STARTCHAR 00EF
ENCODING 239
SWIDTH 320 0
DWIDTH 8 0
BBX 6 14 0 0
BITMAP
CC
CC
00
00
30
30
30
30
30
30
30
30
30
30
ENDCHAR
STARTCHAR 00F1
ENCODING 241
SWIDTH 440 0
DWIDTH 11 0
BBX 8 14 1 0
BITMAP
FC
FC
00
00
FC
FC
C3
C3
C3
C3
C3
C3
C3
C3
ENDCHAR
STARTCHAR 00F2
ENCODING 242
SWIDTH 400 0
DWIDTH 10 0
BBX 8 16 0 0
BITMAP
30
30
0C
0C
00
00
3C
3C
C3
C3
C3
C3
C3
C3
3C
3C
ENDCHAR
STARTCHAR 00F3
ENCODING 243
SWIDTH 400 0
DWIDTH 10 0
BBX 8 16 0 0
BITMAP
03
03
0C
0C
00
00
3C
3C
C3
C3
C3
C3
C3
C3
3C
3C
ENDCHAR
STARTCHAR 00F6
ENCODING 246
SWIDTH 440 0
DWIDTH 11 0
BBX 8 14 1 0
BITMAP
CC
CC
00
00
3C
3C
C3
C3
C3
C3
C3
C3
3C
3C
ENDCHAR
STARTCHAR 00F7
ENCODING 247
SWIDTH 480 0
DWIDTH 12 0
BBX 10 10 0 2
BITMAP
0C00
0C00
0000
0000
FFC0
FFC0
0000
0000
0C00
0C00
ENDCHAR
STARTCHAR 00F9
ENCODING 249
SWIDTH 440 0
DWIDTH 11 0
BBX 8 16 1 0
BITMAP
30
30
0C
0C
00
00
C3
C3
C3
C3
C3
C3
C3
C3
3C
3C
ENDCHAR
STARTCHAR 00FA
ENCODING 250
SWIDTH 440 0
DWIDTH 11 0
BBX 8 16 1 0
BITMAP
03
03
0C
0C
00
00
C3
C3
C3
C3
C3
C3
C3
C3
3C
3C
ENDCHAR
STARTCHAR 00FC
ENCODING 252
SWIDTH 440 0
DWIDTH 11 0
BBX 8 14 1 0
BITMAP
33
33
00
00
C3
C3
C3
C3
C3
C3
C3
C3
3C
3C
ENDCHAR
STARTCHAR 0131
ENCODING 305
SWIDTH 200 0
DWIDTH 5 0
BBX 2 6 1 8
BITMAP
C0
C0
C0
C0
C0
C0
ENDCHAR
STARTCHAR 02D9
ENCODING 729
SWIDTH 320 0
DWIDTH 8 0
BBX 6 6 0 4
BITMAP
30
30
FC
FC
30
30
ENDCHAR
STARTCHAR 2010
ENCODING 8208
SWIDTH 400 0
DWIDTH 10 0
BBX 8 2 0 6
BITMAP
FF
FF
ENDCHAR
STARTCHAR 2022
ENCODING 8226
SWIDTH 400 0
DWIDTH 10 0
BBX 8 8 0 2
BITMAP
3C
3C
FF
FF
FF
FF
3C
3C
ENDCHAR
STARTCHAR 2026
ENCODING 8230
SWIDTH 480 0
DWIDTH 12 0
BBX 10 2 0 0
BITMAP
CCC0
CCC0
ENDCHAR
STARTCHAR 2039
ENCODING 8249
SWIDTH 720 0
DWIDTH 18 0
BBX 14 14 0 0
BITMAP
FFFC
FFFC
C00C
C00C
C3CC
C3CC
CFCC
CFCC
C3CC
C3CC
C00C
C00C
FFFC
FFFC
ENDCHAR
STARTCHAR 203A
ENCODING 8250
SWIDTH 720 0
DWIDTH 18 0
BBX 14 14 0 0
BITMAP
FFFC
FFFC
C00C
C00C
CF0C
CF0C
CFCC
CFCC
CF0C
CF0C
C00C
C00C
FFFC
FFFC
ENDCHAR
STARTCHAR 2219
ENCODING 8729
SWIDTH 320 0
DWIDTH 8 0
BBX 6 6 0 4
BITMAP
30
30
FC
FC
30
30
ENDCHAR
STARTCHAR 2264
ENCODING 8804
SWIDTH 400 0
DWIDTH 10 0
BBX 6 10 0 2
BITMAP
0C
0C
3C
3C
FC
FC
3C
3C
0C
0C
ENDCHAR
STARTCHAR 2265
ENCODING 8805
SWIDTH 400 0
DWIDTH 10 0
BBX 6 10 0 2
BITMAP
C0
C0
F0
F0
FC
FC
F0
F0
C0
C0
ENDCHAR
STARTCHAR F001
ENCODING 61441
SWIDTH 400 0
DWIDTH 10 0
BBX 8 13 0 0
BITMAP
03
0F
0F
3F
3F
FF
FF
3F
3F
0F
0F
03
03
ENDCHAR
STARTCHAR F002
ENCODING 61442
SWIDTH 400 0
DWIDTH 10 0
BBX 8 13 0 0
BITMAP
C0
F0
F0
FC
FC
FF
FF
FC
FC
F0
F0
C0
C0
ENDCHAR
ENDFONT
